<svg height="512pt" viewBox="0 -11 512.001 512" width="512pt" xmlns="http://www.w3.org/2000/svg"><path d="m316.660156 328.457031h-130.777344c-5.503906 0-9.964843 4.464844-9.964843 9.96875v7.402344c0 5.503906 4.460937 9.964844 9.964843 9.964844h130.777344c5.503906 0 9.964844-4.460938 9.964844-9.964844v-7.402344c0-5.503906-4.460938-9.96875-9.964844-9.96875zm0 0" fill="#4e5a61"/><path d="m348.019531 445.558594h-193.496093c-4.746094 0-8.59375 3.847656-8.59375 8.59375v20.175781c0 4.746094 3.847656 8.59375 8.59375 8.59375h193.496093c4.746094 0 8.59375-3.847656 8.59375-8.59375v-20.175781c0-4.746094-3.847656-8.59375-8.59375-8.59375zm0 0" fill="#909ba6"/><path d="m348.019531 445.558594h-31.40625v8.769531c0 4.746094-3.84375 8.59375-8.59375 8.59375h-162.089843v11.40625c0 4.746094 3.847656 8.59375 8.59375 8.59375h193.496093c4.746094 0 8.59375-3.847656 8.59375-8.59375v-20.175781c0-4.746094-3.847656-8.59375-8.59375-8.59375zm0 0" fill="#5f6c75"/><path d="m313.667969 355.792969h-124.792969l-4.914062 26.523437c-2.21875 11.964844-7.960938 23-16.492188 31.679688l-4.40625 4.484375c-5.472656 5.574219-8.539062 13.070312-8.539062 20.882812v6.195313h193.496093v-8.53125c0-8.570313-3.691406-16.730469-10.132812-22.386719-10.300781-9.046875-17.257813-21.292969-19.757813-34.773437zm0 0" fill="#909ba6"/><path d="m337.886719 414.640625c-10.300781-9.046875-17.257813-21.292969-19.757813-34.769531l-4.460937-24.078125h-36.292969l.753906 4.078125c2.5 13.476562 9.457032 25.722656 19.757813 34.769531 6.441406 5.65625 10.132812 13.816406 10.132812 22.390625 0 4.710938-3.816406 8.527344-8.527343 8.527344h-141.578126c-2.207031 4.226562-3.390624 8.953125-3.390624 13.804687v6.195313h193.496093v-8.527344c0-8.574219-3.691406-16.734375-10.132812-22.390625zm0 0" fill="#5f6c75"/><path d="m151.101562 353h-109.996093c-4.628907 0-8.382813 3.753906-8.382813 8.382812v6.226563c0 4.632813 3.753906 8.386719 8.382813 8.386719h109.996093c4.632813 0 8.386719-3.753906 8.386719-8.386719v-6.226563c0-4.628906-3.753906-8.382812-8.386719-8.382812zm0 0" fill="#4e5a61"/><path d="m169.679688 276.09375h-30.40625c-1.320313 0-2.394532-1.070312-2.394532-2.394531v-94.105469c0-76.078125 53.375-139.96875 124.660156-155.894531-1.839843 4.554687-2.820312 9.46875-2.820312 14.5v22.066406c-47.921875 15.203125-82.691406 58.105469-86.863281 108.949219-.574219 6.976562-.425781 4.738281-.425781 74.589844 0 10.789062-.589844 21.570312-1.75 32.289062zm173.835937-245.742188c-15.203125-7.164062-32.113281-10.882812-49.496094-10.457031v-.003906c-4.289062.0625-8.535156.296875-12.734375.691406l10.011719 33.953125c1.089844-.046875 2.179687-.078125 3.273437-.097656l.003907.089844c12.832031-.394532 25.894531 2.457031 37.882812 8.925781l14.34375-21.539063c2.695313-4.046874 1.109375-9.492187-3.285156-11.5625zm0 0" fill="#4e5a61"/><path d="m397.488281 205.378906-9.699219-11.847656c-12.472656-15.226562-18.539062-34.859375-16.160156-54.402344 3.632813-29.847656-10.847656-60.382812-39.171875-75.675781-12.992187-7.011719-27.246093-9.769531-41.109375-8.757813l-13.230468-44.84375c-.660157-2.246093-3.394532-3.089843-5.207032-1.609374-8.984375 7.351562-14.191406 18.347656-14.191406 29.957031v26.515625c-10.800781 6.222656-20.191406 15.152344-26.964844 26.496094-21.65625 36.277343-9.382812 83.132812 27.082032 104.183593 0 .003907.003906.003907.003906.003907l68.703125 39.664062c1.496093.867188 2.402343 2.476562 2.367187 4.203125-.109375 5.007813 2.09375 9.769531 6.429688 12.273437l25.902344 14.957032c9.425781 5.441406 21.476562 2.210937 26.917968-7.214844l11.148438-19.3125c6.347656-10.992188 5.226562-24.769531-2.820313-34.589844zm0 0" fill="#909ba6"/><path d="m397.488281 205.378906-9.699219-11.847656c-12.472656-15.226562-18.542968-34.859375-16.164062-54.402344 3.632812-29.851562-10.84375-60.382812-39.167969-75.675781-7.515625-4.054687-15.449219-6.679687-23.488281-7.980469 17.265625 16.5625 25.5 40.316406 22.65625 63.65625-2.378906 19.539063 3.6875 39.171875 16.164062 54.402344l9.699219 11.847656c8.046875 9.820313 9.167969 23.597656 2.820313 34.589844l-11.148438 19.316406c-3.421875 5.925782-9.460937 9.398438-15.8125 9.808594.847656.949219 1.839844 1.78125 2.992188 2.449219l25.902344 14.953125c9.425781 5.441406 21.476562 2.210937 26.917968-7.210938l11.148438-19.316406c6.347656-10.992188 5.226562-24.769531-2.820313-34.589844zm0 0" fill="#5f6c75"/><path d="m314.363281 328.457031h-128.289062c-12.933594 0-22.757813-11.636719-20.589844-24.386719l1.695313-9.957031c2.828124-16.621093 4.25-33.449219 4.25-50.308593v-64.210938c0-55.925781 36.675781-103.269531 87.285156-119.328125v4.332031c-48.105469 27.8125-50.621094 96.902344-4.28125 128.03125 3.238281 2.171875-2.121094-1 42.179687 24.578125l8.933594 5.160157 16.476563 34.886718c7.207031 15.257813 11.65625 31.671875 13.144531 48.484375 1.078125 12.210938-8.542969 22.71875-20.804688 22.71875zm0 0" fill="#909ba6"/><path d="m314.363281 328.457031h-128.289062c-12.933594 0-22.757813-11.636719-20.589844-24.386719l1.695313-9.957031c2.828124-16.621093 4.25-33.449219 4.25-50.308593v-64.210938c0-55.925781 36.675781-103.269531 87.285156-119.328125v4.332031c-48.105469 27.8125-50.621094 96.902344-4.28125 128.03125 3.238281 2.171875-2.121094-1 42.179687 24.578125l8.933594 5.160157 16.476563 34.886718c7.207031 15.257813 11.65625 31.671875 13.144531 48.484375 1.078125 12.210938-8.542969 22.71875-20.804688 22.71875zm0 0" fill="#909ba6"/><path d="m335.167969 307.65625v-1.917969c-1.484375-16.8125-5.933594-33.226562-13.144531-48.484375l-16.476563-34.890625-8.9375-5.15625c-44.296875-25.578125-38.9375-22.40625-42.175781-24.582031-46.339844-31.125-43.824219-100.214844 4.28125-128.03125v-4.328125c-33.597656 10.660156-61.039063 35.117187-75.703125 66.710937 4.015625 17.714844 14.429687 34.234376 31.421875 45.648438 3.238281 2.171875-2.121094-.996094 42.175781 24.578125 5.820313 3.359375 10.476563 8.414063 13.34375 14.488281l12.070313 25.558594c7.203124 15.25 11.652343 31.65625 13.140624 48.453125 1.082032 12.222656-8.53125 22.753906-20.800781 22.753906h-109.15625c.441407 10.910157 9.4375 20 20.867188 20h128.289062c11.492188 0 20.804688-9.3125 20.804688-20.800781zm0 0" fill="#5f6c75"/><path d="m470.894531 353h-109.996093c-4.632813 0-8.386719 3.753906-8.386719 8.382812v6.226563c0 4.632813 3.753906 8.386719 8.386719 8.386719h109.996093c4.628907 0 8.382813-3.753906 8.382813-8.386719v-6.226563c0-4.628906-3.753906-8.382812-8.382813-8.382812zm0 0" fill="#4e5a61"/><path d="m415.894531 91.175781c-18.261719 0-34.667969 7.933594-45.972656 20.535157 2.214844 8.894531 2.828125 18.1875 1.703125 27.417968-2.378906 19.542969 3.6875 39.175782 16.164062 54.40625l7.898438 9.644532h56.070312c15.664063-11.199219 25.886719-29.527344 25.886719-50.253907 0-34.101562-27.644531-61.75-61.75-61.75zm0 0" fill="#909ba6"/><path d="m421.644531 91.453125c9.941407 10.960937 16 25.507813 16 41.472656 0 .648438-.007812 1.292969-.03125 1.9375-.832031 27.054688-23.535156 48.316407-50.601562 48.316407h-6.316407c2.066407 3.621093 4.421876 7.09375 7.09375 10.351562l7.898438 9.648438h56.070312c15.664063-11.199219 25.886719-29.527344 25.886719-50.253907 0-32.164062-24.59375-58.574219-56-61.472656zm0 0" fill="#5f6c75"/><path d="m470.53125 203.179688h-74.84375l1.800781 2.199218c4.894531 5.972656 7.207031 13.410156 6.855469 20.792969h66.1875c4.617188 0 8.359375-3.742187 8.359375-8.355469v-6.277344c0-4.617187-3.742187-8.359374-8.359375-8.359374zm0 0" fill="#4e5a61"/><path d="m454.363281 226.171875h-50.015625c-.226562 4.757813-1.550781 9.492187-4.039062 13.796875l-11.148438 19.3125c-3.695312 6.398438-10.433594 9.929688-17.332031 9.84375l-10.929687 83.875h109.996093zm0 0" fill="#909ba6"/><path d="m454.363281 226.171875h-37.394531l9.238281 70.863281c2.484375 19.0625-12.359375 35.964844-31.585937 35.964844h-31.117188l-2.605468 20h109.996093zm0 0" fill="#5f6c75"/><path d="m488.746094 425.492188c-8.660156-7.609376-14.515625-17.910157-16.613282-29.25l-3.753906-20.25h-104.964844l-4.136718 22.308593c-1.863282 10.050781-6.679688 19.316407-13.835938 26.613281 1.679688 3.773438 2.578125 7.894532 2.578125 12.117188v8.527344c3.820313 0 7.050781 2.492187 8.171875 5.9375h141.078125v-7.175782c.003907-7.210937-3.105469-14.070312-8.523437-18.828124zm0 0" fill="#909ba6"/><path d="m488.960938 425.675781c-8.652344-7.769531-14.710938-18-16.828126-29.433593l-3.753906-20.25h-36.292968l.046874.25c2.121094 11.433593 8.183594 21.667968 16.832032 29.441406 5.285156 4.75 8.308594 11.523437 8.308594 18.636718 0 3.964844-3.214844 7.175782-7.175782 7.175782h-102.609375c.347657 1.8125.53125 3.660156.53125 5.535156v8.527344c3.820313 0 7.050781 2.492187 8.171875 5.9375h141.078125v-7.175782c.003907-7.117187-3.023437-13.894531-8.308593-18.644531zm0 0" fill="#5f6c75"/><path d="m497.273438 451.496094h-141.082032c.273438.835937.421875 1.730468.421875 2.65625v20.175781c0 4.746094-3.84375 8.59375-8.59375 8.59375h149.253907c3.992187 0 7.226562-3.238281 7.226562-7.230469v-16.964844c0-3.996093-3.234375-7.230468-7.226562-7.230468zm0 0" fill="#909ba6"/><path d="m497.273438 451.496094h-32.773438v9.195312c0 3.992188-3.234375 7.226563-7.226562 7.226563h-100.660157v6.40625c0 4.746093-3.847656 8.59375-8.59375 8.59375h149.25c3.992188 0 7.230469-3.234375 7.230469-7.226563v-16.96875c0-3.992187-3.234375-7.226562-7.226562-7.226562zm0 0" fill="#5f6c75"/><path d="m154.523438 445.558594v-6.195313c0-7.621093 2.925781-14.945312 8.15625-20.46875-5.21875-6.554687-8.796876-14.320312-10.339844-22.648437l-3.753906-20.25h-104.964844l-4.132813 22.304687c-1.867187 10.066407-6.695312 19.347657-13.871093 26.648438l-3.707032 3.773437c-4.601562 4.6875-7.183594 10.992188-7.183594 17.5625v5.210938h131.625c1.117188-3.4375 4.375-5.9375 8.171876-5.9375zm0 0" fill="#909ba6"/><path d="m152.339844 396.242188-3.753906-20.25h-35.730469l.425781 2.308593c1.867188 10.066407 6.695312 19.347657 13.871094 26.648438l3.707031 3.773437c4.601563 4.6875 7.183594 10.992188 7.183594 17.5625 0 2.871094-2.324219 5.210938-5.210938 5.210938h-113.273437c-3.121094 4.265625-4.832032 9.441406-4.832032 14.789062v5.210938h131.625c1.148438-3.53125 4.460938-5.9375 8.171876-5.9375v-6.195313c0-7.621093 2.929687-14.945312 8.15625-20.46875-5.21875-6.558593-8.792969-14.320312-10.339844-22.652343zm0 0" fill="#5f6c75"/><path d="m145.929688 474.328125v-20.175781c0-.925782.148437-1.820313.421874-2.65625h-131.625c-3.992187 0-7.226562 3.234375-7.226562 7.226562v16.96875c0 3.992188 3.234375 7.226563 7.226562 7.226563h139.796876c-4.746094 0-8.59375-3.84375-8.59375-8.589844zm0 0" fill="#909ba6"/><path d="m145.929688 474.328125v-20.175781c0-.925782.148437-1.820313.421874-2.65625h-31.828124v9.195312c0 3.992188-3.238282 7.226563-7.226563 7.226563h-99.796875v7.773437c0 3.992188 3.234375 7.226563 7.226562 7.226563h139.796876c-4.746094 0-8.59375-3.84375-8.59375-8.589844zm0 0" fill="#5f6c75"/><path d="m167.261719 85.90625v-24.519531c0-.617188-.5-1.121094-1.121094-1.121094h-27.550781c-.617188 0-1.117188.503906-1.117188 1.121094v33.902343c0 2.03125-1.648437 3.675782-3.675781 3.675782h-18.433594c-2.03125 0-3.675781-1.644532-3.675781-3.675782v-33.902343c0-.617188-.5-1.121094-1.117188-1.121094h-28.929687c-.617187 0-1.117187.503906-1.117187 1.121094v33.902343c0 2.03125-1.644532 3.675782-3.675782 3.675782h-18.433594c-2.03125 0-3.675781-1.644532-3.675781-3.675782v-33.902343c0-.617188-.5-1.121094-1.117187-1.121094h-27.554688c-.617187 0-1.117187.503906-1.117187 1.121094v78.921875c0 8.339844 6.757812 15.097656 15.09375 15.097656h98.664062c3.90625-25.667969 13.941407-49.351562 28.554688-69.5zm0 0" fill="#909ba6"/><path d="m166.140625 60.265625h-27.550781c-.617188 0-1.117188.503906-1.117188 1.121094v33.902343c0 2.03125-1.648437 3.675782-3.675781 3.675782h-6.535156v9.976562c0 14.617188-11.851563 26.464844-26.464844 26.464844h-75.847656v4.902344c0 8.339844 6.757812 15.097656 15.097656 15.097656h98.660156c3.910157-25.667969 13.941407-49.351562 28.554688-69.5v-24.519531c0-.617188-.5-1.121094-1.121094-1.121094zm0 0" fill="#5f6c75"/><path d="m138.707031 155.40625h-96.011719c-4.542968 0-8.226562 3.683594-8.226562 8.226562v6.320313c0 4.542969 3.683594 8.226563 8.226562 8.226563h94.199219c.066407-7.730469.679688-15.335938 1.8125-22.773438zm0 0" fill="#4e5a61"/><path d="m136.878906 179.59375c0-.472656.011719-.941406.015625-1.414062h-87.976562c-4.3125 0-7.8125 3.496093-7.8125 7.808593v7.375c0 4.3125 3.496093 7.808594 7.8125 7.808594h87.960937zm0 0" fill="#4e5a61"/><path d="m139.273438 276.09375c-1.320313 0-2.394532-1.070312-2.394532-2.394531v-72.527344h-86.949218l-8.824219 151.828125h109.996093l-4.46875-76.90625zm0 0" fill="#909ba6"/><path d="m146.632812 276.09375h-7.359374c-1.320313 0-2.394532-1.070312-2.394532-2.394531v-72.527344h-33.4375l5.203125 89.5c1.332031 22.96875-16.933593 42.328125-39.941406 42.328125h-26.433594l-1.164062 20h109.996093zm0 0" fill="#5f6c75"/><path d="m504.769531 446.070312v-1.75c0-9.367187-4.035156-18.285156-11.074219-24.464843-7.363281-6.46875-12.402343-15.339844-14.191406-24.980469l-2.347656-12.671875c5.652344-2.433594 9.621094-8.058594 9.621094-14.59375v-6.226563c0-6.328124-3.730469-11.789062-9.097656-14.339843l-5.351563-41.070313c-.535156-4.109375-4.300781-7.007812-8.40625-6.46875-4.105469.535156-7.003906 4.296875-6.46875 8.40625l4.898437 37.589844h-92.910156l9.078125-69.648438c7.53125-1.835937 13.503907-6.527343 17.136719-12.820312l11.148438-19.3125c1.839843-3.183594 3.148437-6.570312 3.980468-10.046875h36.988282l5.148437 39.539063c.492187 3.777343 3.71875 6.53125 7.429687 6.53125 4.546876 0 8.03125-3.992188 7.445313-8.46875l-4.894531-37.601563h7.628906c8.746094 0 15.859375-7.113281 15.859375-15.855469v-6.277344c0-8.441406-6.734375-15.859374-16.066406-15.859374 9.46875-12.070313 14.820312-27.109376 14.820312-42.753907 0-38.183593-31.066406-69.25-69.25-69.25-15.457031 0-30.375 5.21875-42.433593 14.570313-6.128907-14.871094-16.574219-27.839844-30.429688-37.140625l10.011719-15.035157c5.238281-7.863281 2.195312-18.488281-6.332031-22.503906-16.453126-7.75-34.742188-11.621094-52.796876-11.171875-2.359374.03125-4.75.121094-7.148437.257813l-1.453125-4.921875c-2.175781-7.378907-11.183594-10.171875-17.152344-5.289063-5.035156 4.121094-9.054687 9.175782-11.917968 14.804688-31.03125 7.691406-59.46875 24.441406-81.480469 47.847656v-3.707031c0-4.753907-3.867188-8.617188-8.617188-8.617188h-27.554687c-4.753906 0-8.617188 3.863281-8.617188 8.617188v30.078125h-10.785156v-30.078125c0-4.753907-3.863281-8.621094-8.617188-8.621094h-28.929687c-4.753906 0-8.617187 3.867187-8.617187 8.621094v30.078125h-10.785157v-30.078125c0-4.753907-3.867187-8.621094-8.617187-8.621094h-27.554688c-4.75 0-8.617187 3.867187-8.617187 8.621094v32.777343c0 4.144532 3.355469 7.5 7.5 7.5s7.5-3.355468 7.5-7.5v-26.398437h14.789062v27.523437c0 6.160157 5.015625 11.175782 11.175781 11.175782h18.433594c6.160156 0 11.175782-5.015625 11.175782-11.175782v-27.523437h16.164062v27.523437c0 6.160157 5.015625 11.175782 11.175781 11.175782h18.433594c6.164063 0 11.175781-5.015625 11.175781-11.175782v-27.523437h14.789063v15.746094c-13.550781 19.316406-22.855469 41.324219-27.328125 64.394531h-92.386719c-4.191406 0-7.597656-3.40625-7.597656-7.59375v-11.148438c0-4.140624-3.355469-7.5-7.5-7.5s-7.5 3.359376-7.5 7.5v11.148438c0 7.871094 4.050781 14.8125 10.171875 18.859375-.421875 1.414063-.65625 2.910156-.65625 4.460937v6.320313c0 5.417969 2.757812 10.207031 6.941406 13.035156-.382812 1.914063-.300781 2.382813-.300781 10.375 0 5.980469 3.457031 11.160157 8.472656 13.675781l-8.148437 140.195313c-5.160157 2.625-8.707032 7.976563-8.707032 14.148437v6.226563c0 6.535156 3.96875 12.160156 9.621094 14.59375l-2.730469 14.730469c-1.597656 8.628906-5.695312 16.5-11.847656 22.757812l-3.703125 3.773438c-5.96875 6.074218-9.273438 14.09375-9.328125 22.601562-4.324219 2.570313-7.234375 7.273438-7.234375 12.65625v16.96875c0 8.121094 6.605469 14.726563 14.730469 14.726563h482.542969c8.121093 0 14.726562-6.605469 14.726562-14.726563v-16.96875c0-5.378906-2.910156-10.082031-7.230469-12.652344zm-20.96875-14.945312c3.710938 3.261719 5.859375 7.9375 5.953125 12.871094h-129.265625c-1.359375-1.667969-3.050781-3.054688-4.96875-4.070313v-2.894531c0-3.570312-.519531-7.078125-1.5-10.4375 6.445313-7.734375 10.785157-16.953125 12.632813-26.925781l3-16.171875h92.488281l2.617187 14.117187c2.394532 12.929688 9.160157 24.832031 19.042969 33.511719zm-329.277343 44.292969c-.605469 0-1.09375-.488281-1.09375-1.089844v-20.175781c0-.601563.488281-1.09375 1.09375-1.09375h193.496093c.453125 0 .84375.277344 1.007813.667968.128906.300782.085937-.964843.085937 20.601563 0 .601563-.488281 1.089844-1.09375 1.089844zm-113.417969-106.925781c-.488281 0-.882813-.394532-.882813-.882813v-6.226563c0-.484374.394532-.882812.882813-.882812h109.996093c.488282 0 .886719.394531.886719.882812v6.226563c0 .488281-.398437.882813-.886719.882813zm125.882812-.882813v-6.226563c0-6.171874-3.550781-11.523437-8.707031-14.148437l-3.699219-63.640625h6.609375c-.902344 6.578125-1.371094 9.0625-3.097656 19.21875-1.910156 11.222656 3.039062 22.109375 11.988281 28.214844-1.058593 2.25-1.667969 4.75-1.667969 7.394531v7.402344c0 7.582031 4.867188 14.035156 11.632813 16.445312l-3.460937 18.675781c-1.800782 9.710938-6.195313 18.628907-12.746094 25.949219-1.941406-3.785156-3.351563-7.835937-4.125-12.019531l-2.351563-12.675781c5.65625-2.429688 9.625-8.054688 9.625-14.589844zm88.050781-165.746094c2.746094 1.617188-12.84375-7.414062 44.730469 25.824219l15.476563 32.769531c6.851562 14.503907 11.039062 29.960938 12.449218 45.941407.6875 7.769531-5.40625 14.558593-13.332031 14.558593h-128.289062c-8.277344 0-14.585938-7.449219-13.195313-15.628906 1.84375-10.832031 3.050782-17.332031 4.246094-28.363281 1.011719-8.636719 1.804688-21.21875 1.804688-33.160156v-64.210938c0-38.484375 18.398437-73.367188 48.160156-95.050781-26.011719 39.761719-13.441406 93.390625 27.949218 117.320312zm216.738282 159.519531v6.226563c0 .488281-.394532.882813-.882813.882813h-110c-.484375 0-.882812-.394532-.882812-.882813v-6.226563c0-.484374.394531-.878906.882812-.882812 1.300781-.003906 111 .003906 110 0 .488281.003906.882813.398438.882813.882812zm-126.765625 0v6.226563c0 6.535156 3.96875 12.160156 9.625 14.59375l-2.730469 14.730469c-1.011719 5.445312-3.019531 10.589844-5.90625 15.21875-.988281-1.105469-2.039062-2.160156-3.164062-3.144532-8.992188-7.902343-15.148438-18.734374-17.328126-30.503906l-3.011718-16.234375c6.765625-2.410156 11.632812-8.859375 11.632812-16.441406v-7.402344c0-3.097656-.820312-6.003906-2.242187-8.53125 7.667969-6.007812 11.582031-15.433593 10.75-24.816406-1.503907-17.035156-5.855469-33.53125-12.933594-49.078125.894531.753906 1.851563 1.441406 2.886719 2.035156l25.902344 14.957032c1.597656.921874 3.265624 1.671874 4.976562 2.246093l-9.355469 71.804688c-5.371093 2.550781-9.101562 8.011719-9.101562 14.339843zm-176.597657 62.355469 4.402344-4.484375c9.613282-9.785156 16.019532-22.085937 18.515625-35.570312l3.78125-20.390625h112.316407l3.328124 17.945312c2.789063 15.0625 10.667969 28.925781 22.179688 39.039063 5.023438 4.414062 7.582031 10.613281 7.582031 16.75v1.03125h-178.460937c.3125-5.390625 2.539062-10.4375 6.355468-14.320313zm148.246094-87.78125c1.359375 0 2.46875 1.109375 2.46875 2.46875v7.402344c0 1.359375-1.109375 2.464844-2.46875 2.464844h-130.777344c-1.359374 0-2.464843-1.105469-2.464843-2.464844v-7.402344c0-1.359375 1.105469-2.46875 2.464843-2.46875zm154.730469-124.417969v6.277344c0 .472656-.382813.855469-.859375.855469-.449219 0-19.183594 0-59.160156 0-.4375-2.726563-1.167969-5.410156-2.1875-7.992187h61.347656c.476562 0 .859375.386718.859375.859374zm-55.496094-112.863281c29.914063 0 54.25 24.335938 54.25 54.25 0 16.691407-7.785156 32.496094-20.910156 42.753907h-49.992187l-5.652344-6.898438c-11.316406-13.816406-16.605469-31.582031-14.519532-48.746094 1.082032-8.875.730469-17.648437-.898437-26.058594 10.082031-9.757812 23.621094-15.300781 37.722656-15.300781zm-121.691406-71.285156c15.820313-.378906 31.765625 2.980469 46.117187 9.742187.054688.027344.226563.109376.285157.324219.046875.160157-.011719.242188-.046875.296875l-10.71875 16.101563c-10.371094-4.523438-21.566406-6.859375-32.945313-6.859375l-5.761719-19.53125c1.023438-.035156 2.046876-.0625 3.070313-.074219zm-10.050781 29.425781c1 3.386719 4.238281 5.625 7.738281 5.359375 42.128906-3.066406 77.535156 32.949219 72.289063 76.046875-2.578126 21.203125 3.910156 43.097656 17.804687 60.0625l9.703125 11.84375c6.03125 7.363282 6.886719 17.847656 2.125 26.089844l-11.148438 19.3125c-3.371093 5.84375-10.828124 7.839844-16.671874 4.46875l-25.902344-14.953125c-1.734375-1-2.734375-3.101563-2.683594-5.625.09375-4.464844-2.25-8.621094-6.113281-10.851563l-68.664063-39.644531c-15.222656-8.625-27.105468-23.488281-31.878906-41.832031-7.835938-30.128906 5.667969-60.875 31.710938-75.882812 2.324218-1.335938 3.757812-3.8125 3.757812-6.496094v-26.515625c0-7.125 2.398438-13.910157 6.730469-19.371094zm-32.746094-22.652344c-.25 2.894532-.191406 2.179688-.191406 20.738282-51.152344 18.574218-87.285156 67.5625-87.285156 124.691406v64.210938c0 8.253906-.355469 16.535156-1.058594 24.789062h-18.492188v-18.964844c0-4.140625-3.359375-7.5-7.5-7.5-4.144531 0-7.5 3.359375-7.5 7.5v24.070313c0 5.457031 4.4375 9.894531 9.894532 9.894531h.28125l3.597656 61.90625h-94.097656l7.953124-136.828125h72.371094v5.960937c0 4.140626 3.355469 7.5 7.5 7.5 4.144532 0 7.5-3.359374 7.5-7.5 0-48.574218.015625-33.148437.015625-36.453124.625-66.035157 44.769531-124.644532 107.011719-144.015626zm-202.492188 159.507813c-.167968 0-.308593-.136719-.308593-.308594v-7.375c0-.171875.140625-.3125.308593-.3125h80.464844v7.996094zm81.316407-30.765625c-.261719 2.582031-.460938 5.175781-.601563 7.773438h-86.933594c-.402343 0-.730468-.328126-.730468-.726563v-6.320313c0-.398437.328125-.726562.730468-.726562zm-99.261719 267.300781c8.25-8.402343 13.746094-18.960937 15.894531-30.539062l2.996094-16.171875h92.492187l2.617188 14.117187c1.382812 7.464844 4.25 14.621094 8.34375 21.015625-4.085938 6.089844-6.289062 13.25-6.289062 20.738282v.558593c-1.917969 1.015625-3.609376 2.402344-4.96875 4.070313h-119.660157c.492188-3.765625 2.164063-7.265625 4.867188-10.019532zm-15.96875 28.789063h123.429688c0 17.257812-.023438 15.257812.054687 16.421875h-123.484375zm482 16.421875h-132.941406c.078125-1.164063.054687.804687.054687-16.421875h132.886719zm0 0"/></svg>